<?xml version="1.0" ?><svg height="512" preserveAspectRatio="xMidYMid" viewBox="0 0 512 512" width="512" xmlns="http://www.w3.org/2000/svg" xmlns:xlink="http://www.w3.org/1999/xlink"><defs><style>
      .cls-1 {
        fill: #3498db;
      }

      .cls-2 {
        fill: #000;
        opacity: 0.3;
      }

      .cls-2, .cls-3 {
        fill-rule: evenodd;
      }

      .cls-3 {
        fill: #fff;
      }
    </style></defs><g><circle class="cls-1" cx="256" cy="256" r="256"/><path class="cls-2" d="M327.720,501.818 C304.963,508.446 280.897,512.000 256.000,512.000 C114.615,512.000 0.000,397.385 0.000,256.000 C0.000,235.779 2.344,216.105 6.776,197.237 L152.409,131.990 L366.000,142.000 L382.000,207.000 L371.541,224.776 L380.492,358.488 L327.720,501.818 Z"/><path class="cls-3" d="M378.945,208.492 C378.945,208.492 321.652,208.275 299.733,208.357 C288.387,198.604 273.588,192.703 257.401,192.703 C241.203,192.703 226.395,198.612 215.046,208.377 C207.395,208.366 147.811,208.471 131.899,208.500 C127.857,208.507 128.013,204.476 128.013,204.476 C128.013,204.476 128.076,171.958 128.004,163.427 C134.689,133.244 164.348,128.344 166.504,128.027 C174.090,128.223 356.602,129.617 356.602,129.617 C356.602,129.617 376.119,135.507 382.360,156.987 C382.781,176.301 382.542,196.993 382.419,205.034 C382.364,208.574 378.945,208.492 378.945,208.492 ZM363.691,159.109 C363.691,152.653 358.457,147.420 352.000,147.420 L328.244,147.420 C321.788,147.420 316.554,152.653 316.554,159.109 L316.554,182.862 C316.554,189.318 321.788,194.551 328.244,194.551 L352.000,194.551 C358.457,194.551 363.691,189.318 363.691,182.862 L363.691,159.109 ZM339.660,183.461 C332.514,183.461 326.720,177.669 326.720,170.523 C326.720,163.378 332.514,157.586 339.660,157.586 C346.806,157.586 352.600,163.378 352.600,170.523 C352.600,177.669 346.806,183.461 339.660,183.461 ZM166.640,128.007 C166.640,128.007 166.586,128.015 166.504,128.027 C166.144,128.017 166.173,128.011 166.640,128.007 ZM257.401,312.840 C226.263,312.840 201.021,287.601 201.021,256.468 C201.021,225.334 226.263,200.096 257.401,200.096 C288.539,200.096 313.781,225.334 313.781,256.468 C313.781,287.601 288.539,312.840 257.401,312.840 ZM131.267,214.431 C131.267,214.431 203.845,214.221 209.078,214.221 C198.892,225.571 192.703,240.533 192.703,256.930 C192.703,292.401 221.669,321.157 257.401,321.157 C293.133,321.157 322.099,292.401 322.099,256.930 C322.099,240.239 315.686,225.035 305.171,213.614 C320.991,213.614 364.934,213.714 378.391,213.746 C382.218,213.755 382.414,216.727 382.414,216.727 C382.414,216.727 384.409,328.161 383.941,349.893 C374.631,383.028 353.381,382.295 353.382,382.385 C353.382,382.385 184.670,383.759 166.511,383.971 C134.183,379.015 128.004,346.965 128.004,346.965 C128.004,346.965 128.004,237.408 128.004,217.519 C128.004,214.299 131.267,214.431 131.267,214.431 ZM166.511,383.971 C166.555,383.978 166.596,383.988 166.640,383.995 C164.324,384.005 164.440,383.996 166.511,383.971 Z"/></g></svg>