<?xml version="1.0" standalone="no"?>
<!DOCTYPE svg PUBLIC "-//W3C//DTD SVG 20010904//EN"
 "http://www.w3.org/TR/2001/REC-SVG-20010904/DTD/svg10.dtd">
<svg version="1.0" xmlns="http://www.w3.org/2000/svg"
 width="512.000000pt" height="512.000000pt" viewBox="0 0 512.000000 512.000000"
 preserveAspectRatio="xMidYMid meet">
<metadata>
Created by potrace 1.11, written by Peter Selinger 2001-2013
</metadata>
<g transform="translate(0.000000,512.000000) scale(0.100000,-0.100000)"
fill="#000000" stroke="none">
<path d="M2520 4960 c-19 -19 -20 -33 -20 -220 0 -187 1 -201 20 -220 26 -26
50 -25 78 0 21 20 22 28 22 220 0 187 -1 201 -20 220 -11 11 -29 20 -40 20
-11 0 -29 -9 -40 -20z"/>
<path d="M1981 4843 c-12 -8 -21 -25 -21 -38 0 -14 25 -102 56 -197 60 -187
83 -225 127 -209 12 4 28 19 36 33 13 23 9 40 -49 216 -64 194 -67 199 -117
208 -6 1 -21 -5 -32 -13z"/>
<path d="M3067 4846 c-16 -12 -137 -363 -137 -398 0 -23 46 -57 69 -51 11 3
26 12 34 21 16 18 127 352 127 381 0 42 -58 72 -93 47z"/>
<path d="M1499 4589 c-40 -40 -27 -62 114 -203 72 -73 142 -138 154 -145 35
-18 83 10 83 49 0 24 -24 53 -145 172 -84 84 -153 144 -165 145 -12 1 -30 -7
-41 -18z"/>
<path d="M3559 4596 c-15 -7 -86 -73 -158 -146 -93 -95 -131 -140 -131 -157 0
-29 36 -67 57 -59 8 3 19 6 25 6 5 0 72 63 149 140 114 114 139 144 139 168 0
27 -26 62 -46 62 -5 0 -21 -6 -35 -14z"/>
<path d="M641 3959 c-31 -12 -48 -36 -56 -76 -6 -33 -6 -33 -68 -34 -108 -2
-217 -13 -302 -29 -27 -6 -59 -11 -70 -13 -89 -15 -151 -50 -140 -79 18 -45
249 -91 520 -102 l60 -3 5 -190 c5 -187 5 -190 32 -225 62 -82 172 -90 247
-17 l24 22 126 -41 c121 -40 170 -55 181 -57 3 0 38 -11 78 -23 91 -28 510
-133 652 -162 124 -26 248 -66 273 -89 36 -31 -1 -147 -95 -305 -28 -46 -48
-91 -48 -108 0 -41 38 -72 105 -87 44 -10 55 -16 51 -28 -10 -25 19 -59 56
-68 207 -46 433 -45 581 4 39 13 61 40 51 64 -4 12 8 18 51 28 63 14 105 49
105 87 0 14 -20 59 -45 101 -62 106 -102 198 -110 253 -7 43 -5 48 20 64 48
32 150 60 430 120 161 34 602 155 762 210 l111 37 36 -31 c59 -52 139 -55 201
-7 58 44 65 73 65 269 0 97 1 176 3 177 1 0 36 3 77 5 253 14 443 49 488 90
l27 24 -23 19 c-38 33 -157 61 -322 77 -36 4 -72 8 -80 9 -8 2 -47 4 -87 4
l-72 1 -6 34 c-8 40 -36 73 -70 82 -13 3 -67 4 -120 2 -89 -3 -98 -5 -116 -28
-11 -14 -22 -38 -26 -53 -7 -35 -5 -34 -128 -41 -55 -3 -117 -8 -137 -11 -21
-3 -54 -7 -72 -9 -70 -9 -152 -29 -199 -48 -38 -17 -47 -25 -45 -42 3 -22 80
-59 148 -70 141 -24 258 -36 374 -40 l61 -2 1 -58 c2 -55 1 -58 -19 -53 -54
12 -289 56 -352 67 -38 6 -83 13 -100 16 -16 3 -48 7 -70 10 -22 2 -78 9 -125
14 -141 18 -161 20 -265 26 -57 4 -116 2 -136 -4 -27 -7 -57 -5 -120 8 -150
32 -270 43 -444 44 -126 1 -310 -10 -337 -18 -7 -3 -31 -7 -53 -10 -22 -3 -68
-12 -103 -20 -47 -11 -72 -12 -100 -4 -49 14 -202 5 -442 -27 -107 -13 -206
-27 -220 -29 -14 -3 -54 -10 -90 -16 -36 -5 -76 -12 -90 -15 -14 -3 -59 -12
-100 -20 -41 -8 -87 -18 -101 -21 -26 -6 -26 -5 -25 52 l1 58 55 2 c279 10
519 58 528 106 7 35 -101 76 -244 94 -27 3 -60 7 -74 9 -14 2 -72 7 -130 10
-58 4 -110 8 -116 10 -5 1 -16 21 -22 44 -18 57 -49 71 -159 70 -48 0 -99 -5
-112 -10z"/>
<path d="M712 2880 c-35 -8 -76 -41 -95 -75 -22 -42 -140 -531 -140 -580 1
-27 35 -193 77 -369 61 -256 81 -325 102 -353 29 -38 354 -394 523 -573 53
-56 61 -69 57 -95 -3 -16 -26 -142 -51 -280 -26 -137 -49 -261 -51 -275 -16
-90 -24 -134 -24 -137 0 -2 221 -3 490 -3 l490 0 1 53 c2 59 4 108 13 292 3
72 8 191 11 265 3 74 8 171 10 215 17 279 16 307 -9 360 -13 28 -63 93 -111
145 -113 122 -277 300 -335 364 -189 210 -236 246 -293 226 -18 -5 -56 -31
-84 -56 -43 -38 -53 -52 -53 -78 1 -39 35 -123 82 -202 20 -32 45 -75 56 -94
70 -124 89 -159 105 -195 l18 -40 -53 55 c-29 30 -100 107 -158 170 -58 63
-126 137 -151 165 -26 27 -57 62 -70 76 -13 15 -64 70 -114 124 -49 54 -93
103 -98 111 -4 7 -20 55 -35 107 l-28 93 53 219 c56 232 57 257 18 313 -30 42
-97 65 -153 52z"/>
<path d="M4343 2880 c-65 -15 -103 -55 -117 -125 -3 -20 13 -104 47 -244 l53
-215 -31 -102 c-28 -95 -35 -108 -90 -166 -64 -67 -217 -234 -306 -332 -72
-80 -173 -189 -232 -251 l-48 -50 18 40 c10 22 58 112 108 200 111 195 127
228 133 280 4 40 2 43 -51 88 -75 65 -104 74 -155 48 -39 -20 -93 -76 -423
-436 -96 -104 -184 -201 -197 -215 -13 -14 -33 -43 -45 -65 -28 -51 -28 -102
-2 -595 3 -65 10 -227 20 -450 1 -36 3 -84 4 -107 l1 -43 491 0 492 0 -7 33
c-6 28 -91 484 -102 547 -2 14 -7 36 -9 50 -3 14 -7 41 -10 60 -5 39 -21 19
198 253 61 65 118 126 126 136 9 10 57 63 107 117 85 92 133 147 161 185 19
24 174 692 169 725 -14 90 -137 551 -153 573 -41 53 -92 74 -150 61z"/>
</g>
</svg>
