<?xml version="1.0" ?><svg height="512" preserveAspectRatio="xMidYMid" viewBox="0 0 512 512" width="512" xmlns="http://www.w3.org/2000/svg" xmlns:xlink="http://www.w3.org/1999/xlink"><defs><style>
      .cls-1 {
        fill: #3498db;
      }

      .cls-2 {
        fill: #000;
        opacity: 0.3;
      }

      .cls-2, .cls-3 {
        fill-rule: evenodd;
      }

      .cls-3 {
        fill: #fff;
      }
    </style></defs><g><circle class="cls-1" cx="256" cy="256" r="256"/><path class="cls-2" d="M212.103,148.879 L2.746,293.629 C20.945,417.174 127.399,512.000 256.000,512.000 C261.615,512.000 267.188,511.819 272.712,511.463 L382.951,325.030 L296.402,325.004 L358.000,244.000 L261.000,244.000 L212.103,148.879 Z"/><path class="cls-3" d="M383.994,324.538 C371.879,336.100 357.678,331.119 351.670,335.892 C346.293,340.164 351.282,349.660 345.555,353.361 C341.322,356.095 328.756,346.416 311.483,352.487 C294.210,358.558 281.911,375.508 255.571,376.943 C229.231,378.379 222.738,356.751 204.027,353.361 C178.019,348.648 172.184,356.363 167.335,353.361 C160.468,349.110 164.495,339.783 161.219,336.766 C158.009,333.809 132.025,332.576 128.021,324.538 C126.723,321.931 166.727,321.739 186.554,271.258 C195.931,247.385 147.379,249.356 155.977,237.194 C161.744,229.038 175.001,248.975 189.175,236.321 C189.372,216.169 189.175,260.981 189.175,184.789 C189.175,161.313 221.020,135.180 253.824,135.003 C288.250,134.817 323.714,161.675 323.714,183.042 C323.714,220.363 323.714,224.654 323.714,235.448 C323.714,251.747 354.825,224.485 358.659,238.941 C362.493,253.398 323.121,248.906 325.461,266.017 C327.801,283.129 352.055,317.931 383.994,324.538 Z"/></g></svg>